<?xml version="1.0" encoding="UTF-8" standalone="no"?>
<svg width="300" height="400" viewBox="0 0 300 400" xmlns="http://www.w3.org/2000/svg">
  <!-- PDF Document Background -->
  <rect x="0" y="0" width="300" height="400" fill="#ffffff" stroke="#cccccc" stroke-width="1"/>
  
  <!-- Header with Title -->
  <rect x="20" y="20" width="260" height="40" fill="#f8f9fa" rx="3" ry="3"/>
  <text x="40" y="45" font-family="Arial" font-size="18" font-weight="bold" fill="#0066cc">AI Generated Document</text>
  
  <!-- Author and Date Line -->
  <text x="40" y="75" font-family="Arial" font-size="12" fill="#666666">AI LaTeX Generator | Today's Date</text>
  
  <!-- Content Separator -->
  <line x1="20" y1="90" x2="280" y2="90" stroke="#cccccc" stroke-width="1"/>
  
  <!-- Document Content Placeholder -->
  <rect x="30" y="110" width="240" height="10" fill="#eeeeee" rx="2" ry="2"/>
  <rect x="30" y="130" width="180" height="10" fill="#eeeeee" rx="2" ry="2"/>
  <rect x="30" y="150" width="220" height="10" fill="#eeeeee" rx="2" ry="2"/>
  <rect x="30" y="170" width="200" height="10" fill="#eeeeee" rx="2" ry="2"/>
  
  <!-- Section Title -->
  <text x="30" y="210" font-family="Arial" font-size="14" font-weight="bold" fill="#0066cc">1. Introduction</text>
  <line x1="30" y1="220" x2="270" y2="220" stroke="#0066cc" stroke-width="1"/>
  
  <!-- Section Content -->
  <rect x="40" y="235" width="220" height="8" fill="#eeeeee" rx="2" ry="2"/>
  <rect x="40" y="250" width="200" height="8" fill="#eeeeee" rx="2" ry="2"/>
  <rect x="40" y="265" width="210" height="8" fill="#eeeeee" rx="2" ry="2"/>
  <rect x="40" y="280" width="180" height="8" fill="#eeeeee" rx="2" ry="2"/>
  
  <!-- Section Title -->
  <text x="30" y="320" font-family="Arial" font-size="14" font-weight="bold" fill="#0066cc">2. Methods</text>
  <line x1="30" y1="330" x2="270" y2="330" stroke="#0066cc" stroke-width="1"/>
  
  <!-- Section Content -->
  <rect x="40" y="345" width="210" height="8" fill="#eeeeee" rx="2" ry="2"/>
  <rect x="40" y="360" width="190" height="8" fill="#eeeeee" rx="2" ry="2"/>
  <rect x="40" y="375" width="220" height="8" fill="#eeeeee" rx="2" ry="2"/>
  
  <!-- Page Number -->
  <text x="150" y="390" font-family="Arial" font-size="10" fill="#999999" text-anchor="middle">Page 1 of 5</text>
</svg>